<svg width="24" height="24" viewBox="0 0 24 24" fill="none" xmlns="http://www.w3.org/2000/svg">
<g clip-path="url(#clip0)">
<path fill-rule="evenodd" clip-rule="evenodd" d="M20.485 3.515C18.8067 1.83683 16.6685 0.694005 14.3408 0.231033C12.013 -0.23194 9.60027 0.00573629 7.40759 0.914006C5.21491 1.82228 3.34081 3.36035 2.02226 5.33372C0.703709 7.3071 -6.29425e-05 9.62715 -6.29425e-05 12.0005C-6.29425e-05 14.3738 0.703709 16.6939 2.02226 18.6673C3.34081 20.6406 5.21491 22.1787 7.40759 23.087C9.60027 23.9953 12.013 24.2329 14.3408 23.77C16.6685 23.307 18.8067 22.1642 20.485 20.486C21.5994 19.3717 22.4833 18.0488 23.0864 16.5928C23.6895 15.1369 23.9999 13.5764 23.9999 12.0005C23.9999 10.4246 23.6895 8.8641 23.0864 7.40815C22.4833 5.95221 21.5994 4.62931 20.485 3.515ZM19.071 19.072C17.1803 20.9182 14.6426 21.9518 12 21.9518C9.35743 21.9518 6.81967 20.9182 4.929 19.072C3.05631 17.195 2.0046 14.6519 2.0046 12.0005C2.0046 9.34909 3.05631 6.80595 4.929 4.929C6.81707 3.07781 9.35581 2.04086 12 2.04086C14.6442 2.04086 17.1829 3.07781 19.071 4.929C20.8991 6.82927 21.9202 9.36366 21.9202 12.0005C21.9202 14.6373 20.8991 17.1717 19.071 19.072ZM16.481 5.7509C16.5075 5.72438 16.5279 5.69239 16.5407 5.65717C16.5536 5.62194 16.5585 5.58433 16.5553 5.54698C16.5521 5.50963 16.5407 5.47344 16.522 5.44095C16.5033 5.40845 16.4777 5.38045 16.447 5.3589C14.9106 4.32607 13.063 3.85947 11.2205 4.03898C9.37795 4.21849 7.65513 5.03295 6.34701 6.3429C5.04115 7.65338 4.22951 9.37573 4.05012 11.2171C3.87073 13.0584 4.33465 14.905 5.36301 16.4429C5.3845 16.4737 5.41248 16.4995 5.44497 16.5184C5.47747 16.5373 5.5137 16.5489 5.55114 16.5523C5.58857 16.5557 5.6263 16.5509 5.66169 16.5383C5.69708 16.5256 5.72927 16.5053 5.75601 16.4789L16.481 5.7509ZM7.51901 18.2482L18.249 7.51721C18.2757 7.49092 18.3077 7.47074 18.343 7.45809C18.3782 7.44543 18.4158 7.4406 18.4531 7.44393C18.4904 7.44726 18.5266 7.45867 18.559 7.47737C18.5914 7.49607 18.6194 7.52161 18.641 7.55221C19.6743 9.08922 20.1414 10.9375 19.9625 12.7808C19.7837 14.6242 18.9699 16.3481 17.6605 17.6578C16.351 18.9675 14.6272 19.7816 12.7839 19.9608C10.9405 20.14 9.09221 19.6732 7.55501 18.6402C7.5242 18.6188 7.49844 18.5909 7.47954 18.5585C7.46065 18.5261 7.44908 18.49 7.44565 18.4526C7.44222 18.4152 7.44701 18.3776 7.45968 18.3423C7.47236 18.307 7.49261 18.2749 7.51901 18.2482Z" fill="black"/>
</g>
<defs>
<clipPath id="clip0">
<path d="M0 0H24V24H0V0Z" fill="white"/>
</clipPath>
</defs>
</svg>
