<svg width="24" height="25" viewBox="0 0 24 25" fill="none" xmlns="http://www.w3.org/2000/svg">
<path fill-rule="evenodd" clip-rule="evenodd" d="M10.6289 0.56792C10.9926 0.204287 11.4857 0 12 0C12.5143 0 13.0074 0.204287 13.3711 0.56792C13.7347 0.931553 13.939 1.42475 13.939 1.939V11.005C13.939 11.0713 13.9653 11.1349 14.0122 11.1818C14.0591 11.2287 14.1227 11.255 14.189 11.255H16.848C17.034 11.2551 17.2161 11.3086 17.3725 11.4093C17.5289 11.5099 17.6531 11.6534 17.7302 11.8227C17.8074 11.992 17.8342 12.1798 17.8076 12.3639C17.781 12.548 17.702 12.7206 17.58 12.861L12.732 18.437C12.641 18.5419 12.5286 18.626 12.4023 18.6836C12.276 18.7412 12.1388 18.7711 12 18.7711C11.8612 18.7711 11.724 18.7412 11.5977 18.6836C11.4714 18.626 11.359 18.5419 11.268 18.437L6.42 12.861C6.29804 12.7206 6.21903 12.548 6.19239 12.3639C6.16576 12.1798 6.19261 11.992 6.26975 11.8227C6.3469 11.6534 6.47108 11.5099 6.62751 11.4093C6.78393 11.3086 6.96599 11.2551 7.152 11.255H9.811C9.8773 11.255 9.94089 11.2287 9.98778 11.1818C10.0347 11.1349 10.061 11.0713 10.061 11.005V1.939C10.061 1.42475 10.2653 0.931553 10.6289 0.56792ZM21.81 17.293C22.0373 17.0657 22.3456 16.938 22.667 16.938C22.8266 16.9373 22.9847 16.9682 23.1323 17.0288C23.28 17.0894 23.4142 17.1786 23.5272 17.2912C23.6403 17.4038 23.73 17.5377 23.7913 17.685C23.8525 17.8324 23.884 17.9904 23.884 18.15V20.005C23.884 21.0659 23.4626 22.0833 22.7124 22.8334C21.9623 23.5836 20.9449 24.005 19.884 24.005H4.116C3.056 24.0037 2.03987 23.5817 1.2908 22.8317C0.54174 22.0817 0.120999 21.065 0.121 20.005V18.15C0.121 17.8286 0.248693 17.5203 0.475987 17.293C0.703281 17.0657 1.01156 16.938 1.333 16.938C1.65444 16.938 1.96272 17.0657 2.19001 17.293C2.41731 17.5203 2.545 17.8286 2.545 18.15V20.005C2.54553 20.4214 2.71125 20.8206 3.00578 21.1149C3.30031 21.4093 3.6996 21.5747 4.116 21.575H19.884C20.3004 21.5747 20.6997 21.4093 20.9942 21.1149C21.2888 20.8206 21.4545 20.4214 21.455 20.005V18.15C21.455 17.8286 21.5827 17.5203 21.81 17.293Z" fill="black"/>
</svg>
