<svg width="24" height="24" viewBox="0 0 24 24" fill="none" xmlns="http://www.w3.org/2000/svg">
<g clip-path="url(#clip0)">
<path d="M16 4.49999C16 4.89781 16.158 5.27934 16.4393 5.56065C16.7206 5.84195 17.1022 5.99999 17.5 5.99999H21.4C21.4495 6.00008 21.4979 5.98546 21.5391 5.958C21.5803 5.93053 21.6124 5.89146 21.6314 5.84572C21.6504 5.79998 21.6553 5.74965 21.6456 5.70109C21.6359 5.65254 21.6121 5.60795 21.577 5.57299L16.427 0.426988C16.3923 0.392167 16.3481 0.36836 16.2999 0.358545C16.2517 0.348731 16.2017 0.353345 16.1561 0.37181C16.1105 0.390276 16.0714 0.421772 16.0436 0.462358C16.0159 0.502944 16.0007 0.550818 16 0.599988V4.49999Z" fill="black"/>
<path d="M22 7.25C22 7.1837 21.9737 7.12011 21.9268 7.07322C21.8799 7.02634 21.8163 7 21.75 7H17.5C16.837 7 16.2011 6.73661 15.7322 6.26777C15.2634 5.79893 15 5.16304 15 4.5V0.25C15 0.183696 14.9737 0.120107 14.9268 0.0732233C14.8799 0.0263392 14.8163 0 14.75 0L4 0C3.46957 0 2.96086 0.210714 2.58579 0.585786C2.21071 0.960859 2 1.46957 2 2V22C2 22.5304 2.21071 23.0391 2.58579 23.4142C2.96086 23.7893 3.46957 24 4 24H20C20.5304 24 21.0391 23.7893 21.4142 23.4142C21.7893 23.0391 22 22.5304 22 22V7.25Z" fill="black"/>
<path d="M17 13.127H16.377C16.3102 13.127 16.2461 13.1536 16.1988 13.2008C16.1515 13.2481 16.125 13.3122 16.125 13.379V14.625C16.125 14.6918 16.1515 14.7559 16.1988 14.8032C16.2461 14.8505 16.3102 14.877 16.377 14.877H17C17.2321 14.877 17.4546 14.7848 17.6187 14.6207C17.7828 14.4566 17.875 14.2341 17.875 14.002C17.875 13.7699 17.7828 13.5474 17.6187 13.3833C17.4546 13.2192 17.2321 13.127 17 13.127V13.127Z" fill="black"/>
</g>
<defs>
<clipPath id="clip0">
<path d="M0 0H24V24H0V0Z" fill="white"/>
</clipPath>
</defs>
</svg>
