<svg width="24" height="25" viewBox="0 0 24 25" fill="none" xmlns="http://www.w3.org/2000/svg">
<path d="M21.989 11.762C21.9536 11.5951 21.877 11.4398 21.7663 11.31C21.6556 11.1803 21.5142 11.0802 21.355 11.019C21.2036 10.9605 21.0401 10.9403 20.879 10.9604C20.718 10.9805 20.5644 11.0401 20.432 11.134C20.0904 11.3794 19.7318 11.6003 19.359 11.795C19.2858 11.8331 19.2043 11.8525 19.1217 11.8515C19.0392 11.8504 18.9582 11.829 18.886 11.789C18.8135 11.7488 18.7522 11.6911 18.7075 11.6213C18.6628 11.5515 18.6362 11.4717 18.63 11.389C18.3259 8.72167 17.2214 6.20892 15.4618 4.18139C13.7022 2.15386 11.3699 0.70658 8.77199 0.0299906C8.58649 -0.0168395 8.39153 -0.0102335 8.20962 0.0490454C8.02771 0.108324 7.86629 0.217857 7.74399 0.364991C7.62363 0.509022 7.54673 0.684333 7.52229 0.870441C7.49786 1.05655 7.52689 1.24577 7.60599 1.41599C8.57177 3.52672 8.69974 5.9255 7.96399 8.12699C7.93329 8.21838 7.87682 8.29895 7.80138 8.35899C7.72594 8.41903 7.63475 8.45597 7.5388 8.46538C7.44285 8.47478 7.34622 8.45625 7.26056 8.412C7.1749 8.36775 7.10386 8.29968 7.05599 8.21599C6.83398 7.82764 6.64144 7.42317 6.47999 7.00599C6.41939 6.84764 6.32042 6.70682 6.19196 6.59616C6.0635 6.4855 5.90957 6.40848 5.74399 6.37199C5.58067 6.3374 5.41133 6.34368 5.25101 6.39025C5.0907 6.43683 4.94436 6.52227 4.82499 6.63899C3.86148 7.5768 3.09644 8.69882 2.57539 9.93831C2.05434 11.1778 1.78792 12.5094 1.79199 13.854C1.79199 16.5613 2.86748 19.1578 4.78185 21.0721C6.69622 22.9865 9.29266 24.062 12 24.062C14.7073 24.062 17.3038 22.9865 19.2181 21.0721C21.1325 19.1578 22.208 16.5613 22.208 13.854C22.2087 13.1509 22.1352 12.4497 21.989 11.762V11.762ZM12.306 21.178C12.2183 21.246 12.1105 21.283 11.9995 21.283C11.8885 21.283 11.7807 21.246 11.693 21.178C10.482 20.238 6.99999 17.34 6.99999 15.085C6.99999 12.357 10.138 11.258 11.579 13.507C11.6242 13.5776 11.6865 13.6357 11.7601 13.6759C11.8336 13.7162 11.9161 13.7373 12 13.7373C12.0838 13.7373 12.1664 13.7162 12.2399 13.6759C12.3135 13.6357 12.3758 13.5776 12.421 13.507C13.862 11.258 17 12.357 17 15.085C17 17.34 13.517 20.238 12.306 21.178V21.178Z" fill="black"/>
</svg>
