<svg width="24" height="24" viewBox="0 0 24 24" fill="none" xmlns="http://www.w3.org/2000/svg">
<g clip-path="url(#clip0)">
<path d="M12 0C9.62662 0 7.30655 0.703788 5.33316 2.02236C3.35977 3.34094 1.8217 5.21509 0.913445 7.4078C0.00519371 9.60051 -0.232446 12.0133 0.230576 14.3411C0.693599 16.6689 1.83649 18.8071 3.51472 20.4853C5.19295 22.1635 7.33114 23.3064 9.65892 23.7694C11.9867 24.2324 14.3995 23.9948 16.5922 23.0866C18.7849 22.1783 20.6591 20.6402 21.9776 18.6668C23.2962 16.6935 24 14.3734 24 12C24 8.8174 22.7357 5.76516 20.4853 3.51472C18.2348 1.26428 15.1826 0 12 0V0ZM13.464 18.587C13.4045 18.5959 13.3502 18.6258 13.311 18.6713C13.2717 18.7168 13.2501 18.7749 13.25 18.835V19.6C13.25 19.9315 13.1183 20.2495 12.8839 20.4839C12.6495 20.7183 12.3315 20.85 12 20.85C11.6685 20.85 11.3505 20.7183 11.1161 20.4839C10.8817 20.2495 10.75 19.9315 10.75 19.6V18.895C10.7501 18.8621 10.7438 18.8296 10.7312 18.7992C10.7187 18.7688 10.7003 18.7412 10.6771 18.7179C10.6538 18.6947 10.6262 18.6763 10.5958 18.6638C10.5654 18.6512 10.5329 18.6449 10.5 18.645H9.353C9.02148 18.645 8.70354 18.5133 8.46912 18.2789C8.2347 18.0445 8.103 17.7265 8.103 17.395C8.103 17.0635 8.2347 16.7455 8.46912 16.5111C8.70354 16.2767 9.02148 16.145 9.353 16.145H12.941C13.2008 16.1449 13.4524 16.0544 13.6527 15.8889C13.853 15.7235 13.9894 15.4934 14.0385 15.2383C14.0876 14.9832 14.0464 14.719 13.9218 14.491C13.7973 14.263 13.5972 14.0855 13.356 13.989L9.716 12.532C8.97704 12.239 8.35567 11.7099 7.94856 11.0271C7.54146 10.3443 7.37145 9.5461 7.46499 8.75668C7.55854 7.96726 7.91039 7.2309 8.4658 6.66216C9.0212 6.09343 9.74902 5.72423 10.536 5.612C10.5954 5.60336 10.6497 5.57366 10.6889 5.52831C10.7282 5.48296 10.7499 5.425 10.75 5.365V4.6C10.75 4.26848 10.8817 3.95054 11.1161 3.71612C11.3505 3.4817 11.6685 3.35 12 3.35C12.3315 3.35 12.6495 3.4817 12.8839 3.71612C13.1183 3.95054 13.25 4.26848 13.25 4.6V5.306C13.25 5.3723 13.2763 5.43589 13.3232 5.48278C13.3701 5.52966 13.4337 5.556 13.5 5.556H14.647C14.9785 5.556 15.2965 5.6877 15.5309 5.92212C15.7653 6.15654 15.897 6.47448 15.897 6.806C15.897 7.13752 15.7653 7.45546 15.5309 7.68988C15.2965 7.9243 14.9785 8.056 14.647 8.056H11.059C10.799 8.05544 10.5469 8.1456 10.3463 8.31095C10.1456 8.47629 10.0089 8.70646 9.95975 8.96177C9.91059 9.21709 9.95203 9.48156 10.0769 9.7096C10.2018 9.93764 10.4024 10.115 10.644 10.211L14.284 11.668C15.023 11.961 15.6443 12.4901 16.0514 13.1729C16.4585 13.8557 16.6285 14.6539 16.535 15.4433C16.4415 16.2327 16.0896 16.9691 15.5342 17.5378C14.9788 18.1066 14.251 18.4758 13.464 18.588V18.587Z" fill="black"/>
</g>
<defs>
<clipPath id="clip0">
<path d="M0 0H24V24H0V0Z" fill="white"/>
</clipPath>
</defs>
</svg>
