<svg width="24" height="24" viewBox="0 0 24 24" fill="none" xmlns="http://www.w3.org/2000/svg">
<path fill-rule="evenodd" clip-rule="evenodd" d="M24 1.95863C23.9968 1.4415 23.7893 0.946596 23.4227 0.58186C23.0561 0.217125 22.5601 0.0121455 22.043 0.0116272H1.959C1.44144 0.0145348 0.946087 0.222244 0.581238 0.589341C0.216389 0.956439 0.0117275 1.45306 0.012 1.97063L0 9.31163C0.0262416 12.738 1.2136 16.0542 3.36812 18.7186C5.52264 21.3829 8.51697 23.238 11.862 23.9806C11.9259 23.9934 11.9909 23.9998 12.056 23.9996C12.1232 23.9994 12.1902 23.9923 12.256 23.9786C15.5943 23.2065 18.5721 21.3251 20.703 18.6419C22.8339 15.9586 23.992 12.6321 23.988 9.20563L24 1.95863ZM7.5 15.4996V9.99963C7.5 9.73441 7.60536 9.48005 7.79289 9.29252C7.98043 9.10498 8.23478 8.99963 8.5 8.99963H8.75V7.24963C8.75 6.38767 9.09241 5.56102 9.7019 4.95153C10.3114 4.34204 11.138 3.99963 12 3.99963C12.862 3.99963 13.6886 4.34204 14.2981 4.95153C14.9076 5.56102 15.25 6.38767 15.25 7.24963V8.99963H15.5C15.7652 8.99963 16.0196 9.10498 16.2071 9.29252C16.3946 9.48005 16.5 9.73441 16.5 9.99963V15.4996C16.5 15.7648 16.3946 16.0192 16.2071 16.2067C16.0196 16.3943 15.7652 16.4996 15.5 16.4996H8.5C8.23478 16.4996 7.98043 16.3943 7.79289 16.2067C7.60536 16.0192 7.5 15.7648 7.5 15.4996ZM13.75 7.24394C13.75 6.77981 13.5656 6.33469 13.2374 6.00651C12.9092 5.67832 12.4641 5.49394 12 5.49394C11.5359 5.49394 11.0907 5.67832 10.7626 6.00651C10.4344 6.33469 10.25 6.77981 10.25 7.24394V8.74394C10.25 8.81025 10.2763 8.87383 10.3232 8.92072C10.3701 8.9676 10.4337 8.99394 10.5 8.99394H13.5C13.5663 8.99394 13.6299 8.9676 13.6768 8.92072C13.7237 8.87383 13.75 8.81025 13.75 8.74394V7.24394ZM13.25 13.2437C13.25 13.934 12.6904 14.4937 12 14.4937C11.3096 14.4937 10.75 13.934 10.75 13.2437C10.75 12.5533 11.3096 11.9937 12 11.9937C12.6904 11.9937 13.25 12.5533 13.25 13.2437Z" fill="black"/>
</svg>
