<svg width="24" height="24" viewBox="0 0 24 24" fill="none" xmlns="http://www.w3.org/2000/svg">
<path fill-rule="evenodd" clip-rule="evenodd" d="M19.25 17H22.75C22.7829 17.0001 22.8154 16.9938 22.8458 16.9812C22.8762 16.9687 22.9038 16.9503 22.9271 16.9271C22.9503 16.9038 22.9687 16.8762 22.9812 16.8458C22.9938 16.8154 23.0001 16.7829 23 16.75V4.75C23 4.48478 22.8946 4.23043 22.7071 4.04289C22.5196 3.85536 22.2652 3.75 22 3.75H20C19.7348 3.75 19.4804 3.85536 19.2929 4.04289C19.1054 4.23043 19 4.48478 19 4.75V16.75C18.9999 16.7829 19.0062 16.8154 19.0188 16.8458C19.0313 16.8762 19.0497 16.9038 19.0729 16.9271C19.0962 16.9503 19.1238 16.9687 19.1542 16.9812C19.1846 16.9938 19.2171 17.0001 19.25 17ZM8 8.75C7.73478 8.75 7.48043 8.85536 7.29289 9.04289C7.10536 9.23043 7 9.48478 7 9.75V16.75C6.99987 16.7829 7.00624 16.8154 7.01876 16.8458C7.03128 16.8762 7.04969 16.9038 7.07293 16.9271C7.09617 16.9503 7.12378 16.9687 7.15417 16.9812C7.18456 16.9938 7.21713 17.0001 7.25 17H10.75C10.7829 17.0001 10.8154 16.9938 10.8458 16.9812C10.8762 16.9687 10.9038 16.9503 10.9271 16.9271C10.9503 16.9038 10.9687 16.8762 10.9812 16.8458C10.9938 16.8154 11.0001 16.7829 11 16.75V9.75C11 9.48478 10.8946 9.23043 10.7071 9.04289C10.5196 8.85536 10.2652 8.75 10 8.75H8ZM1.25 17H4.75C4.78287 17.0001 4.81544 16.9938 4.84583 16.9812C4.87622 16.9687 4.90383 16.9503 4.92707 16.9271C4.95031 16.9038 4.96872 16.8762 4.98124 16.8458C4.99376 16.8154 5.00013 16.7829 5 16.75V14.75C5 14.4848 4.89464 14.2304 4.70711 14.0429C4.51957 13.8554 4.26522 13.75 4 13.75H2C1.73478 13.75 1.48043 13.8554 1.29289 14.0429C1.10536 14.2304 0.999999 14.4848 0.999999 14.75V16.75C0.999867 16.7829 1.00624 16.8154 1.01876 16.8458C1.03128 16.8762 1.04969 16.9038 1.07293 16.9271C1.09617 16.9503 1.12378 16.9687 1.15417 16.9812C1.18456 16.9938 1.21713 17.0001 1.25 17ZM13.2929 11.0429C13.4804 10.8554 13.7348 10.75 14 10.75H16C16.2652 10.75 16.5196 10.8554 16.7071 11.0429C16.8946 11.2304 17 11.4848 17 11.75V16.75C17.0001 16.7829 16.9938 16.8154 16.9812 16.8458C16.9687 16.8762 16.9503 16.9038 16.9271 16.9271C16.9038 16.9503 16.8762 16.9687 16.8458 16.9812C16.8154 16.9938 16.7829 17.0001 16.75 17H13.25C13.2171 17.0001 13.1846 16.9938 13.1542 16.9812C13.1238 16.9687 13.0962 16.9503 13.0729 16.9271C13.0497 16.9038 13.0313 16.8762 13.0188 16.8458C13.0062 16.8154 12.9999 16.7829 13 16.75V11.75C13 11.4848 13.1054 11.2304 13.2929 11.0429ZM23 20.25H1C0.734784 20.25 0.48043 20.1446 0.292893 19.9571C0.105357 19.7696 0 19.5152 0 19.25C0 18.9848 0.105357 18.7304 0.292893 18.5429C0.48043 18.3554 0.734784 18.25 1 18.25H23C23.2652 18.25 23.5196 18.3554 23.7071 18.5429C23.8946 18.7304 24 18.9848 24 19.25C24 19.5152 23.8946 19.7696 23.7071 19.9571C23.5196 20.1446 23.2652 20.25 23 20.25Z" fill="black"/>
</svg>
